<?xml version="1.0" encoding="UTF-8"?>
<svg id="Layer_2" data-name="Layer 2" xmlns="http://www.w3.org/2000/svg" viewBox="0 0 96.19 100.7">
  <defs>
    <style>
      .cls-1 {
        fill: #fff;
      }

      .cls-2 {
        fill: #1d71b8;
      }
    </style>
  </defs>
  <g id="Layer_6" data-name="Layer 6">
    <g>
      <g>
        <rect class="cls-2" x="15.09" y="15.09" width="66.02" height="66.02" transform="translate(48.1 -19.92) rotate(45)"/>
        <path d="M48.1,96.19L0,48.1,48.1,0l48.1,48.1-48.1,48.1ZM2.83,48.1l45.27,45.27,45.27-45.27L48.1,2.83,2.83,48.1Z"/>
      </g>
      <g>
        <path class="cls-1" d="M43.66,49.9c2.95.03,5.9.05,8.85.08-1.24,1.1-3.99.98-5.41.91-1.76-.07-2.88-.18-3.44-.99Z"/>
        <path class="cls-1" d="M66.78,35.6c.44.88.22,1.8.11,2.27-.37,1.6-.76,3.43-1.24,5.57-.44.46-.86.75-1.15.92-.41.24-.56.26-.64.27-.48.02-.87-.4-1.08-.67-.07-.1-.11-.18-.14-.21.45-2.72.89-5.43,1.33-8.15.12-.26.29-.48.47-.65.32-.29.71-.45,1.09-.41.74.06,1.14.84,1.25,1.06Z"/>
        <path class="cls-1" d="M32.31,35.6c.44,2.72.89,5.43,1.33,8.15-.02.03-.07.11-.14.21-.2.27-.59.69-1.07.67-.08-.01-.24-.03-.64-.27-.3-.17-.71-.46-1.16-.92-.47-2.14-.87-3.97-1.24-5.57-.11-.47-.32-1.39.12-2.27.11-.22.5-1,1.25-1.06.38-.04.76.12,1.08.41.19.17.35.39.47.65Z"/>
        <path class="cls-1" d="M44.66,34.32c.45.66.87,1.96.56,3.39-.49,2.31-2.55,3.31-2.68,3.37-1.7.78-3.27.28-3.64.15-.3-.1-2.27-.83-2.91-2.75-.62-1.85.22-4.11,2.14-5.44.67-.27,1.37-.31,2.22-.25.69.05,1.55.17,2.23.31,1.11.22,1.41.27,2.08,1.22ZM42.51,35.66c0-.95-.77-1.72-1.72-1.72s-1.72.77-1.72,1.72.77,1.72,1.72,1.72,1.72-.77,1.72-1.72Z"/>
        <path class="cls-1" d="M48.21,15.01c2.79,0,4.84.44,5.88.7,2.47.61,4.93,1.27,6.32,3.4.3.47.62,1.04.87,2.27.2.96.38,1.93.56,2.92.29,1.63.56,3.27.83,4.88.02.14.05.28.07.42.09.56.18,1.13.27,1.69.02.12.04.23.07.35l-1.74.13h-.75c-1.16-.36-2.83-.74-4.85-.74-1.72,0-3.17.26-4.25.55-.77.16-1.32.7-1.96,1.11h-2.78c-.63-.41-1.19-.95-1.96-1.11-1.07-.29-2.52-.55-4.25-.55-2.02,0-3.69.38-4.85.74h-.75s-.58-.05-1.73-.13c.02-.12.04-.23.06-.35.1-.56.18-1.13.28-1.69.02-.14.04-.28.07-.42.26-1.61.53-3.25.83-4.88.17-.99.36-1.96.55-2.92.26-1.23.57-1.8.88-2.27,1.38-2.13,3.85-2.79,6.31-3.4,1.04-.26,3.1-.7,5.88-.7h.14ZM55.25,30.36c2.2-.15,4.78-.14,4.78-.14-4.51-.8-5.73-.68-5.73-.68-2.19.21-3.92,1.16-3.84,1.36.06.17,1.64-.32,4.79-.54ZM45.83,30.9c.07-.2-1.66-1.15-3.84-1.36,0,0-1.23-.12-5.74.68,0,0,2.58-.01,4.79.14,3.14.22,4.72.71,4.79.54Z"/>
        <path class="cls-1" d="M60.39,35.21c.56,1.51.08,2.82-.09,3.27-.09.2-.88,2.08-2.92,2.75-.26.09-1.2.37-2.38.13-1.7-.34-3.49-1.67-3.94-3.65-.33-1.46.15-2.79.57-3.39.66-.95.96-1,2.08-1.22.67-.14,1.54-.26,2.22-.31.86-.06,1.56-.02,2.22.25,1.09.28,1.86,1.13,2.24,2.17ZM57.39,35.65c0-.97-.78-1.75-1.75-1.75s-1.74.78-1.74,1.75.78,1.75,1.74,1.75,1.75-.79,1.75-1.75Z"/>
        <path class="cls-1" d="M52.92,48.33c.05.13.09.31.09.54,0,.38-.13.66-.21.8-3.08-.04-6.16-.08-9.24-.12-.07-.13-.15-.32-.2-.57-.05-.28-.02-.52,0-.68,3.19.01,6.38.02,9.56.03Z"/>
        <path class="cls-1" d="M62.46,35.61h.01c-.08,1.11-.29,2.22-.48,3.32-.6,3.58-1.28,7.16-1.96,10.73-.11.6-.23,1.19-.34,1.79l-4.61,5.08c-.74.8-1.48,1.61-2.22,2.41h-4.72s-4.72,0-4.72,0c-.74-.8-1.48-1.61-2.22-2.41l-4.61-5.08c-.11-.6-.22-1.19-.34-1.79-.67-3.57-1.35-7.15-1.96-10.73-.18-1.1-.39-2.21-.48-3.32h.01l.24.04.28.05c-.17,2.84,1.29,5.43,3.6,6.49,2.43,1.11,4.87.09,5.06,0,1.21-.53,1.94-1.33,2.12-1.54.85-.98,1.13-1.97,1.26-2.44.3-1.09.27-2.02.2-2.61h3.13c-.07.59-.11,1.52.19,2.61.13.47.42,1.46,1.27,2.44.18.21.9,1.01,2.11,1.54.2.08,2.64,1.1,5.07,0,2.31-1.06,3.76-3.65,3.6-6.49l.28-.05.23-.04ZM55.74,48.74c.02-.08.07-.24.06-.44-.01-.33-.15-.57-.26-.71-.43-.56-1.86-2.08-2.04-1.89-.12.11.53.69,1.03,2.17.2.59.23.94.25,1.14.05.67-.08,1.2-.22,1.77-.46,1.86-.69,2.79-.65,2.8.2,0,1.62-4.14,1.83-4.84ZM53.58,49.72c.24-.5.32-1.07.23-1.71l-.04-.3h-11.05l-.04.29c-.15.88-.02,1.66.38,2.25.79,1.19,2.35,1.26,4.01,1.34.43,0,.94.04,1.48.04,1.9,0,4.22-.27,5.03-1.91ZM51.73,43.9s-.21.12-.47.27c-.27.17-.35.24-.63.41-.23.14-.15.08-.38.22,0,0-.3.18-.58.23-.01,0-.04,0-.07-.01-.07-.03-.09-.13-.09-.2s.02-.11.03-.14c.01,0,.05-.09.13-.13.12-.06.25.02.27-.01s-.05-.09-.07-.1c-.16-.15-.35-.18-.39-.18-.13-.02-.31-.04-.41.07-.06.06-.08.14-.08.18-.02.13.02.19.03.29.02.17-.07.35-.19.46-.16.15-.36.16-.45.16s-.31,0-.47-.16c-.12-.12-.18-.3-.17-.46.01-.12.05-.18.02-.29-.03-.1-.1-.17-.14-.19-.12-.09-.25-.08-.35-.07-.05,0-.21.02-.35.12-.02.02-.14.1-.12.14s.12-.01.26.04c.03.02.11.05.16.13.03.06.04.11.04.14-.01.05-.02.17-.1.2-.03.02-.07.01-.09.01-.43-.12-1.14-.66-1.14-.66-.37-.28-.52-.37-.52-.52,0-.09.06-.16.17-.28.29-.3.57-.48.68-.56.05-.02.37-.24,1.01-.68.04-.03.12-.09.2-.19.13-.16.16-.34.18-.45,0-.66.01-1.64.03-2.84.02-.91.04-1.52,0-1.52s-.15.8-.21,1.57c-.02.32-.08.9-.19,2.06-.02.19-.05.5-.26.83-.04.07-.14.21-.44.47-.41.36-.58.38-1.07.74-.68.5-.7.71-.7.81.02.15.12.32.14.34.11.16.24.24.3.28.87.57,1.57.95,1.97,1.14,0,0,.63.3,1.15.3h.02s.08,0,.14-.01c.24,0,.59-.07,1.02-.29.23-.11.4-.22.92-.62.13-.1,1.29-1,1.26-1.05ZM51.18,54.05c.04-.09.06-.21-.01-.33-.22-.36-1.15-.25-3.11-.26-1.7-.01-2.6-.1-2.79.23-.05.1-.03.2,0,.27.38.16.95.36,1.68.47,1.09.18,1.97.08,2.4.03.46-.05,1.11-.16,1.83-.41ZM41.37,47.87c.49-1.48,1.15-2.06,1.03-2.17-.18-.19-1.61,1.33-2.04,1.89-.11.14-.26.38-.27.71,0,.2.04.36.07.44.2.7,1.63,4.84,1.83,4.84.03-.01-.19-.94-.65-2.8-.14-.57-.27-1.1-.22-1.77.01-.2.05-.55.25-1.14Z"/>
        <path class="cls-1" d="M73.04,68.91l-21.91,22.03c-.12-1.19-.23-2.37-.35-3.56-.16-1.65-.33-3.3-.49-4.95h-4.3c-.18,1.66-.35,3.32-.53,4.97-.13,1.15-.25,2.31-.37,3.46l-21.85-21.95h7.82l4.76,6.51,5.14,7.01,1.47-3.59,1.47-3.58,1.05,3.09c.35,1.03.69,2.07,1.04,3.1h4.3c.35-1.03.7-2.07,1.05-3.1.34-1.03.69-2.06,1.04-3.09l1.47,3.58,1.48,3.59,5.13-7.01,4.77-6.51h7.81Z"/>
        <path class="cls-1" d="M64.62,68.91l-5.63,2.92-6.61,3.43h-8.48l-6.6-3.43-5.63-2.92h2.24l.15-.09c1.12-.67,2.11-1.5,2.94-2.47,2.52-2.98,2.94-6.57,2.83-9.06.3.34.88,1.01.89,1.02.03.03,2.08,2.39,2.11,2.42,1.77,0,3.54-.01,5.31-.01s3.54.01,5.31.01c.79-.9,1.58-1.8,2.37-2.71.21-.24.42-.48.62-.72-.09,2.48.33,6.08,2.85,9.05.82.97,1.81,1.8,2.94,2.47l.15.09h2.24Z"/>
        <polygon class="cls-1" points="65.6 68.4 65.23 68.91 64.62 68.91 65.6 68.4"/>
        <polygon class="cls-1" points="65.23 68.91 60.46 75.42 55.33 82.43 53.85 78.84 52.38 75.26 58.99 71.83 64.62 68.91 65.23 68.91"/>
        <path class="cls-1" d="M60.03,30.22s-2.58-.01-4.78.14c-3.15.22-4.73.71-4.79.54-.08-.2,1.65-1.15,3.84-1.36,0,0,1.22-.12,5.73.68Z"/>
        <path class="cls-1" d="M56.66,55.18l1.26.21c-.01.08-.03.17-.05.27-.31.37-.64.74-.96,1.11-.15.18-.31.36-.47.53.03-.87.13-1.6.22-2.12Z"/>
        <path class="cls-1" d="M39.62,55.18l-1.25.21c.01.09.03.18.05.28-1.02-1.15-2.03-2.31-3.03-3.46-.28-1.59-.56-3.17-.84-4.76-.14-.82-.29-1.65-.43-2.47-.06.1-.16.25-.33.41-.1.1-.22.2-.38.28-.41.22-.79.2-.96.19-.8-.03-1.79-.59-2.54-1.5-.36-.44-.69-.99-1.4-4.61-.54-2.78-.57-3.59-.18-4.46.39-.88,1.04-1.43,1.1-1.48.16-.13.74-.6,1.65-.83.21-.05.4-.08.57-.1.22-.02.38-.03.48-.03.54-4.16,1.12-7.75,1.64-10.64.17-.97.45-2.39,1.52-3.74.74-.94,1.74-1.68,3.6-2.46,1.7-.71,4.71-1.7,8.91-1.73.1-.01.22-.02.34-.02.13,0,.24,0,.34.02,4.21.03,7.21,1.02,8.91,1.73,1.86.78,2.86,1.52,3.6,2.46,1.07,1.35,1.35,2.77,1.52,3.74.52,2.89,1.1,6.48,1.65,10.64.09,0,.26,0,.47.03.17.02.36.05.58.1.9.23,1.49.7,1.64.83.07.05.72.6,1.11,1.48.38.87.35,1.68-.19,4.46-.71,3.62-1.03,4.17-1.4,4.61-.75.91-1.73,1.47-2.53,1.5-.18.01-.56.03-.97-.19-.15-.08-.28-.18-.38-.28-.16-.16-.27-.31-.32-.41-.15.82-.29,1.65-.44,2.47-.28,1.59-.56,3.17-.84,4.76-1.01,1.15-2.01,2.3-3.02,3.45.02-.1.04-.19.05-.27l-1.26-.21c-.09.52-.19,1.25-.22,2.12-.2.24-.41.48-.62.72-.79.91-1.58,1.81-2.37,2.71-1.77,0-3.54-.01-5.31-.01s-3.54.01-5.31.01c-.03-.03-2.08-2.39-2.11-2.42-.01-.01-.59-.68-.89-1.02-.03-.86-.12-1.59-.21-2.11ZM36.59,51.45l4.61,5.08c.74.8,1.48,1.61,2.22,2.41h4.72s4.72,0,4.72,0c.74-.8,1.48-1.61,2.22-2.41l4.61-5.08c.11-.6.23-1.19.34-1.79.68-3.57,1.36-7.15,1.96-10.73.19-1.1.4-2.21.48-3.32h-.01l-.23.04-.28.05c.16,2.84-1.29,5.43-3.6,6.49-2.43,1.11-4.87.09-5.07,0-1.21-.53-1.93-1.33-2.11-1.54-.85-.98-1.14-1.97-1.27-2.44-.3-1.09-.26-2.02-.19-2.61h-3.13c.07.59.1,1.52-.2,2.61-.13.47-.41,1.46-1.26,2.44-.18.21-.91,1.01-2.12,1.54-.19.08-2.63,1.1-5.06,0-2.31-1.06-3.77-3.65-3.6-6.49l-.28-.05-.24-.04h-.01c.09,1.11.3,2.22.48,3.32.61,3.58,1.29,7.16,1.96,10.73.12.6.23,1.19.34,1.79ZM66.89,37.87c.11-.47.33-1.39-.11-2.27-.11-.22-.51-1-1.25-1.06-.38-.04-.77.12-1.09.41-.18.17-.35.39-.47.65-.44,2.72-.88,5.43-1.33,8.15.03.03.07.11.14.21.21.27.6.69,1.08.67.08-.01.23-.03.64-.27.29-.17.71-.46,1.15-.92.48-2.14.87-3.97,1.24-5.57ZM63.08,31.64c-.03-.12-.05-.23-.07-.35-.09-.56-.18-1.13-.27-1.69-.02-.14-.05-.28-.07-.42-.27-1.61-.54-3.25-.83-4.88-.18-.99-.36-1.96-.56-2.92-.25-1.23-.57-1.8-.87-2.27-1.39-2.13-3.85-2.79-6.32-3.4-1.04-.26-3.09-.7-5.88-.7h-.14c-2.78,0-4.84.44-5.88.7-2.46.61-4.93,1.27-6.31,3.4-.31.47-.62,1.04-.88,2.27-.19.96-.38,1.93-.55,2.92-.3,1.63-.57,3.27-.83,4.88-.03.14-.05.28-.07.42-.1.56-.18,1.13-.28,1.69-.02.12-.04.23-.06.35,1.15.08,1.73.13,1.73.13h.75c1.16-.36,2.83-.74,4.85-.74,1.73,0,3.18.26,4.25.55.77.16,1.33.7,1.96,1.11h2.78c.64-.41,1.19-.95,1.96-1.11,1.08-.29,2.53-.55,4.25-.55,2.02,0,3.69.38,4.85.74h.75l1.74-.13ZM60.3,38.48c.17-.45.65-1.76.09-3.27-.38-1.04-1.15-1.89-2.24-2.17-.66-.27-1.36-.31-2.22-.25-.68.05-1.55.17-2.22.31-1.12.22-1.42.27-2.08,1.22-.42.6-.9,1.93-.57,3.39.45,1.98,2.24,3.31,3.94,3.65,1.18.24,2.12-.04,2.38-.13,2.04-.67,2.83-2.55,2.92-2.75ZM45.22,37.71c.31-1.43-.11-2.73-.56-3.39-.67-.95-.97-1-2.08-1.22-.68-.14-1.54-.26-2.23-.31-.85-.06-1.55-.02-2.22.25-1.92,1.33-2.76,3.59-2.14,5.44.64,1.92,2.61,2.65,2.91,2.75.37.13,1.94.63,3.64-.15.13-.06,2.19-1.06,2.68-3.37ZM33.64,43.75c-.44-2.72-.89-5.43-1.33-8.15-.12-.26-.28-.48-.47-.65-.32-.29-.7-.45-1.08-.41-.75.06-1.14.84-1.25,1.06-.44.88-.23,1.8-.12,2.27.37,1.6.77,3.43,1.24,5.57.45.46.86.75,1.16.92.4.24.56.26.64.27.48.02.87-.4,1.07-.67.07-.1.12-.18.14-.21Z"/>
        <path class="cls-1" d="M55.64,33.9c.97,0,1.75.78,1.75,1.75s-.78,1.75-1.75,1.75-1.74-.79-1.74-1.75.78-1.75,1.74-1.75Z"/>
        <path class="cls-1" d="M55.8,48.3c.01.2-.04.36-.06.44-.21.7-1.63,4.84-1.83,4.84-.04-.01.19-.94.65-2.8.14-.57.27-1.1.22-1.77-.02-.2-.05-.55-.25-1.14-.5-1.48-1.15-2.06-1.03-2.17.18-.19,1.61,1.33,2.04,1.89.11.14.25.38.26.71Z"/>
        <path class="cls-1" d="M52.51,49.98c-2.95-.03-5.9-.05-8.85-.08.56.81,1.68.92,3.44.99,1.42.07,4.17.19,5.41-.91ZM43.56,49.55c3.08.04,6.16.08,9.24.12.08-.14.21-.42.21-.8,0-.23-.04-.41-.09-.54-3.18-.01-6.37-.02-9.56-.03-.02.16-.05.4,0,.68.05.25.13.44.2.57ZM53.81,48.01c.09.64.01,1.21-.23,1.71-.81,1.64-3.13,1.91-5.03,1.91-.54,0-1.05-.03-1.48-.04-1.66-.08-3.22-.15-4.01-1.34-.4-.59-.53-1.37-.38-2.25l.04-.29h11.05l.04.3Z"/>
        <path class="cls-1" d="M52.38,75.26c-.35,1.03-.7,2.06-1.04,3.09-.35,1.03-.7,2.07-1.05,3.1h-4.3c-.35-1.03-.69-2.07-1.04-3.1l-1.05-3.09h8.48Z"/>
        <path class="cls-1" d="M51.26,92.33c-.04-.46-.09-.93-.13-1.39l21.91-22.03h-7.81l.37-.51-.98.51h-2.24l-.15-.09c-1.13-.67-2.12-1.5-2.94-2.47-2.52-2.97-2.94-6.57-2.85-9.05.16-.17.32-.35.47-.53.32-.37.65-.74.96-1.11-.3,2-.52,6.43,2.39,9.87.7.82,1.53,1.53,2.47,2.11h13.37l-27.89,28.04-.06-.07-.53-.39-2.76-2.77.07-.07c1.04.48,2.07.96,3.11,1.44l.11.11.2-.2c.97-.47,1.94-.93,2.91-1.4Z"/>
        <path class="cls-1" d="M51.13,90.94c.04.46.09.93.13,1.39-.97.47-1.94.93-2.91,1.4l2.78-2.79Z"/>
        <path class="cls-1" d="M51.17,53.72c.07.12.05.24.01.33-.72.25-1.37.36-1.83.41-.43.05-1.31.15-2.4-.03-.73-.11-1.3-.31-1.68-.47-.03-.07-.05-.17,0-.27.19-.33,1.09-.24,2.79-.23,1.96.01,2.89-.1,3.11.26Z"/>
        <path class="cls-1" d="M51.13,90.94l-2.78,2.79c-.08.04-.17.08-.25.12l-.06-.03-2.95-2.96c.12-1.15.24-2.31.37-3.46.18-1.65.35-3.31.53-4.97h4.3c.16,1.65.33,3.3.49,4.95.12,1.19.23,2.37.35,3.56Z"/>
        <path class="cls-1" d="M51.73,43.9s-1.13.95-1.26,1.05c-.52.4-.69.51-.92.62-.43.22-.78.28-1.02.29-.06.01-.1.01-.14.01h-.02c-.52,0-1.15-.3-1.15-.3-.4-.19-1.1-.57-1.97-1.14-.06-.04-.19-.12-.3-.28-.02-.02-.12-.19-.14-.34,0-.1.02-.31.7-.81.49-.36.66-.38,1.07-.74.3-.26.4-.4.44-.47.21-.33.24-.64.26-.83.11-1.16.17-1.74.19-2.06.06-.77.17-1.57.21-1.57s.02.61,0,1.52c-.02,1.2-.03,2.18-.03,2.84-.02.11-.05.29-.18.45-.08.1-.16.16-.2.19-.64.44-.96.66-1.01.68-.11.08-.39.26-.68.56-.11.12-.17.19-.17.28,0,.15.15.24.52.52,0,0,.71.54,1.14.66.02,0,.06,0,.09-.01.08-.03.09-.15.1-.2,0-.03-.01-.08-.04-.14-.05-.08-.13-.11-.16-.13-.14-.05-.24,0-.26-.04s.1-.12.12-.14c.14-.1.3-.12.35-.12.1,0,.23-.02.35.07.04.02.11.09.14.19.03.11-.01.17-.02.29,0,.16.05.34.17.46.16.16.38.16.47.16s.29-.01.45-.16c.12-.11.21-.29.19-.46-.01-.1-.05-.16-.03-.29,0-.04.02-.12.08-.18.1-.11.28-.09.41-.07.04,0,.23.03.39.18.02,0,.09.07.07.1s-.15-.05-.27.01c-.08.04-.12.12-.13.13-.01.03-.03.07-.03.14s.02.17.09.2c.03.01.06.01.07.01.28-.05.58-.23.58-.23.23-.14.15-.08.38-.22.28-.17.36-.24.63-.41.26-.15.45-.27.47-.27Z"/>
        <path class="cls-1" d="M45.09,90.86l2.95,2.96c-1.04-.48-2.07-.96-3.11-1.44.05-.51.11-1.01.16-1.52Z"/>
        <path class="cls-1" d="M41.99,29.54c2.18.21,3.91,1.16,3.84,1.36-.07.17-1.65-.32-4.79-.54-2.21-.15-4.79-.14-4.79-.14,4.51-.8,5.74-.68,5.74-.68Z"/>
        <path class="cls-1" d="M45.09,90.86c-.05.51-.11,1.01-.16,1.52l-.07.07-24.68-24.81h13.37c.95-.58,1.78-1.29,2.47-2.11,2.92-3.44,2.69-7.86,2.4-9.86.41.48.82.95,1.24,1.43,0,0,.07.08.17.19.11,2.49-.31,6.08-2.83,9.06-.83.97-1.82,1.8-2.94,2.47l-.15.09h-2.24l-.98-.51.37.51h-7.82l21.85,21.95Z"/>
        <polygon class="cls-1" points="43.9 75.26 42.43 78.84 40.96 82.43 35.82 75.42 31.06 68.91 31.67 68.91 37.3 71.83 43.9 75.26"/>
        <path class="cls-1" d="M42.4,45.7c.12.11-.54.69-1.03,2.17-.2.59-.24.94-.25,1.14-.05.67.08,1.2.22,1.77.46,1.86.68,2.79.65,2.8-.2,0-1.63-4.14-1.83-4.84-.03-.08-.07-.24-.07-.44.01-.33.16-.57.27-.71.43-.56,1.86-2.08,2.04-1.89Z"/>
        <circle class="cls-1" cx="40.79" cy="35.66" r="1.72"/>
        <path class="cls-1" d="M39.83,57.29c-.1-.11-.17-.19-.17-.19-.42-.48-.83-.95-1.24-1.43-.02-.1-.04-.19-.05-.28l1.25-.21c.09.52.18,1.25.21,2.11Z"/>
        <polygon class="cls-1" points="31.67 68.91 31.06 68.91 30.69 68.4 31.67 68.91"/>
      </g>
      <g>
        <polygon points="65.59 68.41 60.46 75.42 55.33 82.43 53.85 78.85 52.38 75.26 58.99 71.83 65.59 68.41 65.59 68.41 65.59 68.41"/>
        <polygon points="30.69 68.41 35.82 75.42 40.96 82.43 42.43 78.85 43.9 75.26 37.29 71.83 30.69 68.41 30.69 68.41 30.69 68.41"/>
        <path d="M52.38,75.26c-.35,1.03-.7,2.06-1.04,3.1s-.7,2.06-1.04,3.1h-4.3c-.35-1.03-.7-2.06-1.04-3.1s-.7-2.06-1.04-3.1h8.48Z"/>
        <path d="M50.29,82.43h-4.3c-.18,2.41-.35,4.82-.53,7.23-.18,2.41-.35,4.82-.53,7.23l3.17,3.81,3.17-3.87c-.16-2.4-.32-4.8-.49-7.2-.16-2.4-.32-4.8-.49-7.2Z"/>
      </g>
      <g>
        <path d="M44.95,44.16c.1.16.23.24.29.28.87.57,1.58.95,1.98,1.14,0,0,.63.3,1.15.3.01,0,.02,0,.02,0,.03,0,.08,0,.13,0,.25-.02.59-.08,1.03-.29.22-.11.4-.22.91-.62.13-.1,1.3-1,1.26-1.05-.01-.02-.2.1-.47.27-.28.17-.35.24-.64.41-.22.14-.15.08-.37.21,0,0-.3.18-.58.23-.01,0-.04,0-.07,0-.07-.03-.1-.13-.1-.2,0-.06.02-.11.04-.13,0-.02.05-.09.12-.13.12-.06.26.02.27-.02.01-.03-.05-.08-.07-.1-.16-.14-.36-.17-.39-.18-.13-.02-.31-.04-.42.07-.06.06-.07.14-.08.19-.02.12.02.18.04.28.02.17-.07.36-.19.47-.16.15-.36.15-.45.15-.09,0-.31,0-.48-.15-.12-.12-.18-.3-.17-.46,0-.12.06-.18.03-.29-.03-.11-.11-.17-.14-.2-.12-.09-.25-.08-.35-.07-.05,0-.21.02-.35.13-.02.01-.14.1-.12.14.02.04.12-.01.26.04.03.01.11.05.16.13.03.05.04.11.04.14,0,.05-.02.17-.09.2-.03.02-.07,0-.09,0-.43-.12-1.15-.65-1.15-.65-.37-.28-.52-.37-.52-.53,0-.09.05-.16.17-.28.29-.3.56-.48.68-.55.04-.03.36-.25,1-.68.04-.03.13-.09.2-.19.12-.16.16-.34.17-.46,0-.66.01-1.64.04-2.84.02-.91.03-1.52,0-1.52-.04,0-.15.8-.21,1.57-.02.33-.08.91-.19,2.07-.02.18-.05.5-.25.83-.05.08-.14.22-.44.47-.42.36-.59.39-1.07.74-.68.5-.71.71-.7.81.01.15.12.32.14.35Z"/>
        <path d="M48.13,15.02s-.04,0-.07,0c.02,0,.05,0,.07,0,0,0,0,0,0,0Z"/>
        <path d="M48.15,15.02s0,0,0,0c.02,0,.05,0,.07,0-.03,0-.05,0-.07,0Z"/>
        <path d="M40.72,58.31s2.08,2.39,2.11,2.42c1.77,0,3.54,0,5.31,0,1.77,0,3.54,0,5.31,0,.79-.9,1.58-1.8,2.36-2.71.36-.42.73-.84,1.09-1.25,1.33-1.52,2.65-3.04,3.98-4.56.28-1.59.56-3.17.84-4.76.15-.82.29-1.65.44-2.47.06.1.16.25.32.41.1.1.23.2.38.28.41.22.79.2.97.2.8-.03,1.78-.59,2.53-1.5.37-.45.69-.99,1.4-4.61.54-2.78.57-3.59.19-4.46-.39-.87-1.04-1.43-1.1-1.48-.16-.13-.74-.6-1.65-.83-.21-.05-.41-.08-.57-.1-.22-.02-.38-.03-.48-.02-.55-4.17-1.13-7.75-1.64-10.65-.17-.96-.45-2.38-1.52-3.73-.74-.94-1.74-1.68-3.6-2.46-1.7-.71-4.7-1.7-8.91-1.74-.1,0-.21-.01-.34-.02-.13,0-.24.01-.34.02-4.21.04-7.21,1.03-8.91,1.74-1.86.78-2.86,1.52-3.6,2.46-1.07,1.35-1.35,2.77-1.52,3.73-.52,2.9-1.1,6.48-1.64,10.65-.09,0-.26,0-.48.02-.17.02-.36.05-.57.1-.91.23-1.49.69-1.65.83-.06.05-.71.61-1.1,1.48-.39.87-.36,1.68.19,4.46.71,3.62,1.03,4.17,1.4,4.61.75.91,1.73,1.47,2.53,1.5.18,0,.56.02.97-.2.15-.08.28-.18.38-.28.16-.16.26-.31.32-.41.15.82.29,1.65.44,2.47.28,1.59.56,3.17.84,4.76,1.42,1.63,2.84,3.26,4.27,4.89,0,0,1.05,1.2,1.06,1.21ZM64.44,34.95c.32-.29.71-.45,1.08-.41.75.07,1.14.85,1.25,1.06.44.88.22,1.8.12,2.27-.37,1.6-.77,3.43-1.24,5.58-.45.46-.86.74-1.16.92-.41.24-.56.26-.64.27-.48.02-.87-.4-1.07-.67-.07-.1-.12-.17-.14-.21.44-2.72.88-5.43,1.33-8.15.12-.26.28-.48.47-.65ZM33.5,43.96c-.2.27-.59.69-1.07.67-.08,0-.23-.02-.64-.27-.29-.18-.71-.46-1.16-.92-.47-2.15-.87-3.97-1.24-5.58-.11-.47-.33-1.39.12-2.27.11-.22.5-1,1.25-1.06.38-.03.76.12,1.08.41.19.17.35.39.47.65.44,2.72.88,5.43,1.33,8.15-.02.03-.07.11-.14.21ZM33.21,31.64c.02-.12.04-.23.06-.35.1-.56.18-1.12.27-1.69.02-.14.05-.28.07-.43.27-1.6.54-3.25.83-4.88.18-.98.36-1.96.56-2.92.25-1.23.57-1.8.87-2.27,1.38-2.13,3.85-2.78,6.31-3.4,1.04-.26,3.1-.7,5.88-.69.03,0,.05,0,.07,0,0,0,0,0,0,0s0,0,0,0c.02,0,.04,0,.07,0,2.78,0,4.84.43,5.88.69,2.46.62,4.93,1.27,6.31,3.4.31.47.62,1.04.87,2.27.2.95.38,1.93.56,2.92.29,1.63.56,3.27.83,4.88.02.14.05.29.07.43.09.56.18,1.13.27,1.69.02.12.04.23.06.35l-1.73.13h-.75c-1.16-.36-2.83-.73-4.85-.74-1.72,0-3.17.26-4.25.55-.77.17-1.33.7-1.96,1.12h-2.78c-.64-.41-1.19-.95-1.96-1.12-1.07-.28-2.52-.55-4.25-.55-2.02,0-3.69.38-4.85.74h-.75s-.58-.04-1.73-.13ZM60.29,38.48c-.08.2-.88,2.08-2.91,2.75-.26.09-1.2.37-2.38.13-1.7-.34-3.49-1.67-3.94-3.65-.33-1.46.15-2.79.57-3.39.66-.96.96-1,2.08-1.23.67-.14,1.54-.26,2.23-.31.86-.06,1.56-.02,2.22.25,1.09.28,1.86,1.14,2.24,2.17.56,1.51.08,2.82-.1,3.27ZM45.22,37.71c-.49,2.31-2.55,3.31-2.68,3.36-1.7.79-3.27.29-3.64.16-.3-.11-2.27-.83-2.91-2.75-.62-1.85.22-4.11,2.14-5.44.66-.27,1.37-.31,2.22-.25.68.05,1.55.17,2.23.31,1.11.22,1.41.27,2.08,1.23.46.66.87,1.95.57,3.39ZM55.08,56.53c-.74.81-1.48,1.61-2.22,2.42h-4.72s-4.72,0-4.72,0c-.74-.81-1.48-1.61-2.22-2.42l-4.61-5.08c-.11-.6-.23-1.19-.34-1.79-.68-3.57-1.36-7.15-1.96-10.73-.19-1.1-.39-2.2-.48-3.31,0,0,0,0,0,0h.02s0,0,0,0l.23.04s0,0,0,0l.28.05c-.16,2.85,1.29,5.44,3.6,6.5,2.43,1.11,4.87.09,5.07,0,1.21-.53,1.93-1.33,2.11-1.54.85-.98,1.14-1.97,1.27-2.44.3-1.08.26-2.02.19-2.61h3.13c-.07.59-.11,1.53.19,2.61.13.47.42,1.46,1.27,2.44.18.21.9,1.01,2.11,1.54.2.09,2.64,1.11,5.07,0,2.31-1.06,3.76-3.65,3.6-6.5l.28-.05s0,0,0,0l.23-.04h.02s0,0,0,0c-.09,1.11-.3,2.21-.48,3.31-.61,3.59-1.28,7.16-1.96,10.73,0,0,0,0,0,0-.11.6-.23,1.19-.34,1.79l-4.61,5.08Z"/>
        <path d="M48.06,53.46c-1.7,0-2.6-.1-2.79.23-.06.1-.03.21,0,.28.38.16.95.35,1.68.47,1.09.18,1.97.08,2.4.03.47-.05,1.11-.17,1.84-.41.03-.09.06-.21-.01-.33-.22-.36-1.15-.25-3.11-.26Z"/>
        <path d="M41.04,30.36c3.14.22,4.73.71,4.79.54.07-.19-1.66-1.14-3.84-1.36,0,0-1.22-.12-5.73.68,0,0,2.58,0,4.78.14Z"/>
        <path d="M55.25,30.36c2.2-.15,4.78-.14,4.78-.14-4.51-.8-5.73-.68-5.73-.68-2.19.22-3.91,1.16-3.84,1.36.07.18,1.65-.32,4.79-.54Z"/>
        <path d="M41.37,47.87c.49-1.47,1.15-2.05,1.03-2.17-.18-.18-1.61,1.33-2.05,1.89-.11.14-.25.38-.26.71,0,.2.04.36.06.44.21.7,1.64,4.88,1.83,4.84.03,0-.19-.94-.65-2.79-.14-.57-.27-1.1-.22-1.77.01-.2.05-.55.25-1.14Z"/>
        <path d="M53.5,45.7c-.12.12.54.7,1.03,2.17.2.6.24.94.25,1.14.05.67-.08,1.2-.22,1.77-.46,1.86-.68,2.79-.65,2.79.19.05,1.63-4.14,1.83-4.84.02-.08.07-.24.06-.44,0-.33-.15-.57-.26-.71-.43-.56-1.86-2.08-2.05-1.89Z"/>
        <path d="M53.77,47.72h-11.05l-.05.29c-.14.88-.01,1.65.38,2.24.79,1.2,2.36,1.26,4.01,1.34.43.02.94.04,1.48.04,1.9,0,4.22-.27,5.03-1.91.24-.49.32-1.07.23-1.7l-.04-.3ZM47.1,50.9c-1.76-.08-2.87-.19-3.44-1,2.95.03,5.9.06,8.86.09-1.24,1.1-4,.97-5.42.91ZM52.8,49.67c-3.08-.04-6.16-.08-9.24-.12-.07-.13-.15-.32-.19-.57-.05-.29-.03-.53,0-.68,3.19.01,6.37.02,9.56.03.04.13.09.31.09.53,0,.38-.14.67-.22.8Z"/>
        <path d="M55.64,33.9c-.97,0-1.75.78-1.75,1.75s.78,1.75,1.75,1.75,1.75-.78,1.75-1.75-.78-1.75-1.75-1.75Z"/>
        <path d="M40.79,33.94c-.95,0-1.72.77-1.72,1.72s.77,1.72,1.72,1.72,1.72-.77,1.72-1.72-.77-1.72-1.72-1.72Z"/>
      </g>
      <path d="M48.21,95.68l-.06-.06h0s-.53-.39-.53-.39l-27.44-27.59h13.38c.94-.58,1.77-1.29,2.47-2.11,3.06-3.61,2.66-8.29,2.34-10.13l1.26-.21c.34,2.02.77,7.16-2.63,11.17-.82.97-1.81,1.8-2.94,2.47l-.15.09h-10.66l24.91,25.02,24.89-25.02h-10.66l-.15-.09c-1.13-.67-2.12-1.5-2.94-2.47-3.4-4.01-2.97-9.15-2.63-11.17l1.26.21c-.31,1.85-.71,6.53,2.35,10.13.69.82,1.52,1.53,2.47,2.11h13.37l-27.89,28.04Z"/>
    </g>
  </g>
</svg>